name C:\Users\u0101727\Documents\MyRepositories\upper-imu-dc\Results\main_tracking\Case_47\kinematics.mot
datacolumns 10
datarows 18
range 5.38000000 5.55000000
endheader 
time	clav_prot	clav_elev	scapula_abduction	scapula_elevation	scapula_upward_rot	scapula_winging	plane_elv	shoulder_elv	axial_rot	
          5.38000000	        -26.41560258	          3.89448805	          2.17584134	         -4.38710312	         45.98159491	         -4.35527464	         67.44390817	         54.40433001	         -9.09053826	
          5.39000000	        -26.33959434	          3.78061131	          1.98585369	         -4.41935244	         45.54532034	         -4.25577946	         67.50527661	         54.00570913	         -9.25597270	
          5.40000000	        -26.26588068	          3.66727516	          1.78821932	         -4.44981453	         45.10389115	         -4.15465509	         67.55817694	         53.60904752	         -9.42953603	
          5.41000000	        -26.19447955	          3.55433342	          1.58282108	         -4.47853358	         44.65709515	         -4.05178448	         67.60254495	         53.21480647	         -9.61043874	
          5.42000000	        -26.12543948	          3.44160887	          1.36951429	         -4.50557752	         44.20473746	         -3.94704463	         67.63840412	         52.82334225	         -9.79760233	
          5.43000000	        -26.05884235	          3.32890237	          1.14814113	         -4.53103493	         43.74666759	         -3.84031345	         67.66585025	         52.43489671	         -9.98962849	
          5.44000000	        -25.99480161	          3.21599971	          0.91855387	         -4.55501390	         43.28280669	         -3.73147601	         67.68502998	         52.04959122	        -10.18476601	
          5.45000000	        -25.93345692	          3.10267813	          0.68064270	         -4.57764095	         42.81317347	         -3.62043097	         67.69611773	         51.66742416	        -10.38088348	
          5.46000000	        -25.87496718	          2.98871529	          0.43436333	         -4.59905843	         42.33790750	         -3.50709768	         67.69929606	         51.28827154	        -10.57545934	
          5.47000000	        -25.81950335	          2.87390133	          0.17975987	         -4.61941942	         41.85728785	         -3.39142410	         67.69474283	         50.91189061	        -10.76560143	
          5.48000000	        -25.76724178	          2.75805324	         -0.08302004	         -4.63888049	         41.37174450	         -3.27339472	         67.68262546	         50.53792668	        -10.94810727	
          5.49000000	        -25.71835787	          2.64102783	         -0.35371867	         -4.65759431	         40.88185974	         -3.15303666	         67.66309962	         50.16592341	        -11.11957315	
          5.50000000	        -25.67301957	          2.52272947	         -0.63196965	         -4.67570448	         40.38835745	         -3.03042239	         67.63630859	         49.79533775	        -11.27655411	
          5.51000000	        -25.63138027	          2.40310984	         -0.91730617	         -4.69334402	         39.89207967	         -2.90566750	         67.60238050	         49.42556017	        -11.41576780	
          5.52000000	        -25.59357099	          2.28216008	         -1.20917465	         -4.71063741	         39.39395162	         -2.77892373	         67.56142344	         49.05594051	        -11.53432010	
          5.53000000	        -25.55969224	          2.15989895	         -1.50695272	         -4.72770360	         38.89493869	         -2.65036849	         67.51352111	         48.68581792	        -11.62991569	
          5.54000000	        -25.52980694	          2.03636278	         -1.80997203	         -4.74465661	         38.39599927	         -2.52019339	         67.45873376	         48.31455242	        -11.70101254	
          5.55000000	        -25.50393659	          1.91160190	         -2.11754832	         -4.76160075	         37.89803711	         -2.38859377	         67.39710781	         47.94155577	        -11.74689417	
